<?xml version="1.0" encoding="UTF-8" standalone="no"?>
<!DOCTYPE svg PUBLIC "-//W3C//DTD SVG 1.1//EN" "http://www.w3.org/Graphics/SVG/1.1/DTD/svg11.dtd">
<svg width="100%" height="100%" viewBox="0 0 600 400" version="1.1" xmlns="http://www.w3.org/2000/svg" xmlns:xlink="http://www.w3.org/1999/xlink" xml:space="preserve" xmlns:serif="http://www.serif.com/" style="fill-rule:evenodd;clip-rule:evenodd;">
    <rect x="0" y="0" width="600" height="400" style="fill:white;"/>
    <rect x="53.939" y="11.811" width="534.252" height="344.594" style="fill:white;"/>
    <path d="M68.428,356.405L68.428,11.811" style="fill:none;fill-rule:nonzero;stroke:black;stroke-opacity:0.1;stroke-width:0.5px;"/>
    <path d="M131.508,356.405L131.508,11.811" style="fill:none;fill-rule:nonzero;stroke:black;stroke-opacity:0.1;stroke-width:0.5px;"/>
    <path d="M194.588,356.405L194.588,11.811" style="fill:none;fill-rule:nonzero;stroke:black;stroke-opacity:0.1;stroke-width:0.5px;"/>
    <path d="M257.668,356.405L257.668,11.811" style="fill:none;fill-rule:nonzero;stroke:black;stroke-opacity:0.1;stroke-width:0.5px;"/>
    <path d="M320.748,356.405L320.748,11.811" style="fill:none;fill-rule:nonzero;stroke:black;stroke-opacity:0.1;stroke-width:0.5px;"/>
    <path d="M383.828,356.405L383.828,11.811" style="fill:none;fill-rule:nonzero;stroke:black;stroke-opacity:0.1;stroke-width:0.5px;"/>
    <path d="M446.908,356.405L446.908,11.811" style="fill:none;fill-rule:nonzero;stroke:black;stroke-opacity:0.1;stroke-width:0.5px;"/>
    <path d="M509.988,356.405L509.988,11.811" style="fill:none;fill-rule:nonzero;stroke:black;stroke-opacity:0.1;stroke-width:0.5px;"/>
    <path d="M573.068,356.405L573.068,11.811" style="fill:none;fill-rule:nonzero;stroke:black;stroke-opacity:0.1;stroke-width:0.5px;"/>
    <path d="M53.939,346.652L588.19,346.652" style="fill:none;fill-rule:nonzero;stroke:black;stroke-opacity:0.1;stroke-width:0.5px;"/>
    <path d="M53.939,310.53L588.19,310.53" style="fill:none;fill-rule:nonzero;stroke:black;stroke-opacity:0.1;stroke-width:0.5px;"/>
    <path d="M53.939,274.41L588.19,274.41" style="fill:none;fill-rule:nonzero;stroke:black;stroke-opacity:0.1;stroke-width:0.5px;"/>
    <path d="M53.939,238.289L588.19,238.289" style="fill:none;fill-rule:nonzero;stroke:black;stroke-opacity:0.1;stroke-width:0.5px;"/>
    <path d="M53.939,202.168L588.19,202.168" style="fill:none;fill-rule:nonzero;stroke:black;stroke-opacity:0.1;stroke-width:0.5px;"/>
    <path d="M53.939,166.048L588.19,166.048" style="fill:none;fill-rule:nonzero;stroke:black;stroke-opacity:0.1;stroke-width:0.5px;"/>
    <path d="M53.939,129.927L588.19,129.927" style="fill:none;fill-rule:nonzero;stroke:black;stroke-opacity:0.1;stroke-width:0.5px;"/>
    <path d="M53.939,93.806L588.19,93.806" style="fill:none;fill-rule:nonzero;stroke:black;stroke-opacity:0.1;stroke-width:0.5px;"/>
    <path d="M53.939,57.685L588.19,57.685" style="fill:none;fill-rule:nonzero;stroke:black;stroke-opacity:0.1;stroke-width:0.5px;"/>
    <path d="M53.939,21.564L588.19,21.564" style="fill:none;fill-rule:nonzero;stroke:black;stroke-opacity:0.1;stroke-width:0.5px;"/>
    <path d="M53.939,356.405L588.19,356.405" style="fill:none;fill-rule:nonzero;stroke:black;stroke-width:1px;"/>
    <path d="M53.939,356.405L53.939,11.811" style="fill:none;fill-rule:nonzero;stroke:black;stroke-width:1px;"/>
    <path d="M68.428,356.405L68.428,352.27" style="fill:none;fill-rule:nonzero;stroke:black;stroke-width:1px;"/>
    <path d="M131.508,356.405L131.508,352.27" style="fill:none;fill-rule:nonzero;stroke:black;stroke-width:1px;"/>
    <path d="M194.588,356.405L194.588,352.27" style="fill:none;fill-rule:nonzero;stroke:black;stroke-width:1px;"/>
    <path d="M257.668,356.405L257.668,352.27" style="fill:none;fill-rule:nonzero;stroke:black;stroke-width:1px;"/>
    <path d="M320.748,356.405L320.748,352.27" style="fill:none;fill-rule:nonzero;stroke:black;stroke-width:1px;"/>
    <path d="M383.828,356.405L383.828,352.27" style="fill:none;fill-rule:nonzero;stroke:black;stroke-width:1px;"/>
    <path d="M446.908,356.405L446.908,352.27" style="fill:none;fill-rule:nonzero;stroke:black;stroke-width:1px;"/>
    <path d="M509.988,356.405L509.988,352.27" style="fill:none;fill-rule:nonzero;stroke:black;stroke-width:1px;"/>
    <path d="M573.068,356.405L573.068,352.27" style="fill:none;fill-rule:nonzero;stroke:black;stroke-width:1px;"/>
    <path d="M53.939,346.652L60.35,346.652" style="fill:none;fill-rule:nonzero;stroke:black;stroke-width:1px;"/>
    <path d="M53.939,310.53L60.35,310.53" style="fill:none;fill-rule:nonzero;stroke:black;stroke-width:1px;"/>
    <path d="M53.939,274.41L60.35,274.41" style="fill:none;fill-rule:nonzero;stroke:black;stroke-width:1px;"/>
    <path d="M53.939,238.289L60.35,238.289" style="fill:none;fill-rule:nonzero;stroke:black;stroke-width:1px;"/>
    <path d="M53.939,202.168L60.35,202.168" style="fill:none;fill-rule:nonzero;stroke:black;stroke-width:1px;"/>
    <path d="M53.939,166.048L60.35,166.048" style="fill:none;fill-rule:nonzero;stroke:black;stroke-width:1px;"/>
    <path d="M53.939,129.927L60.35,129.927" style="fill:none;fill-rule:nonzero;stroke:black;stroke-width:1px;"/>
    <path d="M53.939,93.806L60.35,93.806" style="fill:none;fill-rule:nonzero;stroke:black;stroke-width:1px;"/>
    <path d="M53.939,57.685L60.35,57.685" style="fill:none;fill-rule:nonzero;stroke:black;stroke-width:1px;"/>
    <path d="M53.939,21.564L60.35,21.564" style="fill:none;fill-rule:nonzero;stroke:black;stroke-width:1px;"/>
    <g transform="matrix(1,0,0,1,68.428,369.905)">
        <text x="-3.337px" y="0px" style="font-family:'ArialMT', 'Arial', sans-serif;font-size:12px;">0</text>
    </g>
    <g transform="matrix(1,0,0,1,131.508,369.905)">
        <text x="-15.015px" y="0px" style="font-family:'ArialMT', 'Arial', sans-serif;font-size:12px;">1,000</text>
    </g>
    <g transform="matrix(1,0,0,1,194.588,369.905)">
        <text x="-15.015px" y="0px" style="font-family:'ArialMT', 'Arial', sans-serif;font-size:12px;">2,000</text>
    </g>
    <g transform="matrix(1,0,0,1,257.668,369.905)">
        <text x="-15.015px" y="0px" style="font-family:'ArialMT', 'Arial', sans-serif;font-size:12px;">3,000</text>
    </g>
    <g transform="matrix(1,0,0,1,320.748,369.905)">
        <text x="-15.015px" y="0px" style="font-family:'ArialMT', 'Arial', sans-serif;font-size:12px;">4,000</text>
    </g>
    <g transform="matrix(1,0,0,1,383.827,369.905)">
        <text x="-15.015px" y="0px" style="font-family:'ArialMT', 'Arial', sans-serif;font-size:12px;">5,000</text>
    </g>
    <g transform="matrix(1,0,0,1,446.908,369.905)">
        <text x="-15.015px" y="0px" style="font-family:'ArialMT', 'Arial', sans-serif;font-size:12px;">6,000</text>
    </g>
    <g transform="matrix(1,0,0,1,509.988,369.905)">
        <text x="-15.015px" y="0px" style="font-family:'ArialMT', 'Arial', sans-serif;font-size:12px;">7,000</text>
    </g>
    <g transform="matrix(1,0,0,1,573.067,369.905)">
        <text x="-15.015px" y="0px" style="font-family:'ArialMT', 'Arial', sans-serif;font-size:12px;">8,000</text>
    </g>
    <g transform="matrix(1,0,0,1,47.9385,351.027)">
        <text x="-16.682px" y="0px" style="font-family:'ArialMT', 'Arial', sans-serif;font-size:12px;">0.0</text>
    </g>
    <g transform="matrix(1,0,0,1,47.9385,314.905)">
        <text x="-16.682px" y="0px" style="font-family:'ArialMT', 'Arial', sans-serif;font-size:12px;">0.1</text>
    </g>
    <g transform="matrix(1,0,0,1,47.9385,278.785)">
        <text x="-16.682px" y="0px" style="font-family:'ArialMT', 'Arial', sans-serif;font-size:12px;">0.2</text>
    </g>
    <g transform="matrix(1,0,0,1,47.9385,242.664)">
        <text x="-16.682px" y="0px" style="font-family:'ArialMT', 'Arial', sans-serif;font-size:12px;">0.3</text>
    </g>
    <g transform="matrix(1,0,0,1,47.9385,206.543)">
        <text x="-16.682px" y="0px" style="font-family:'ArialMT', 'Arial', sans-serif;font-size:12px;">0.4</text>
    </g>
    <g transform="matrix(1,0,0,1,47.9385,170.423)">
        <text x="-16.682px" y="0px" style="font-family:'ArialMT', 'Arial', sans-serif;font-size:12px;">0.5</text>
    </g>
    <g transform="matrix(1,0,0,1,47.9385,134.302)">
        <text x="-16.682px" y="0px" style="font-family:'ArialMT', 'Arial', sans-serif;font-size:12px;">0.6</text>
    </g>
    <g transform="matrix(1,0,0,1,47.9385,98.1805)">
        <text x="-16.682px" y="0px" style="font-family:'ArialMT', 'Arial', sans-serif;font-size:12px;">0.7</text>
    </g>
    <g transform="matrix(1,0,0,1,47.9385,62.0595)">
        <text x="-16.682px" y="0px" style="font-family:'ArialMT', 'Arial', sans-serif;font-size:12px;">0.8</text>
    </g>
    <g transform="matrix(1,0,0,1,47.9385,25.9387)">
        <text x="-16.682px" y="0px" style="font-family:'ArialMT', 'Arial', sans-serif;font-size:12px;">0.9</text>
    </g>
    <g transform="matrix(1,0,0,1,321.062,389.87)">
        <text x="-89.868px" y="0px" style="font-family:'ArialMT', 'Arial', sans-serif;font-size:16.5px;">Monte Carlo macrosteps</text>
    </g>
    <g transform="matrix(-3.82857e-16,-1,1,-3.82857e-16,22.3215,184.108)">
        <text x="-75.205px" y="0px" style="font-family:'ArialMT', 'Arial', sans-serif;font-size:16.5px;">local spin correlation</text>
    </g>
    <g transform="matrix(1,0,0,1,-68.8292,0)">
        <path d="M169.053,356.405L169.053,11.811" style="fill:none;fill-rule:nonzero;stroke:black;stroke-width:1px;stroke-dasharray:10,3,0,0;"/>
    </g>
    <path d="M69.059,310.025L69.69,309.918L70.321,309.845L70.951,310.025L71.582,309.845L72.213,309.88L72.844,309.953L73.475,309.99L74.105,309.953L74.736,310.063L75.367,310.063L75.998,309.953L76.629,309.99L77.259,309.918L77.89,309.99L78.521,310.025L79.152,309.845L79.783,309.808L80.413,309.953L81.044,309.99L81.675,309.99L82.306,309.953L82.937,309.88L83.567,310.063L84.198,309.845L84.829,309.99L85.46,309.88L86.091,309.99L86.721,309.953L87.352,309.99L87.983,309.918L88.614,309.845L89.245,309.918L89.875,309.953L90.506,309.99L91.137,309.953L91.768,309.918L92.399,309.845L93.029,309.88L93.66,309.88L94.291,309.808L94.922,309.808L95.553,309.88L96.183,309.845L96.814,309.808L97.445,309.88L98.076,309.99L99.337,309.99L99.968,309.88L100.599,116.634L101.23,70.472L101.861,61.622L102.491,57.071L103.122,54.434L103.753,52.303L104.384,50.894L105.015,49.558L105.645,48.51L106.276,47.499L106.907,46.812L107.538,46.162L108.168,45.62L109.43,44.898L110.061,44.428L110.692,44.031L111.323,43.634L111.953,43.344L112.584,43.02L113.215,42.803L113.846,42.406L115.107,41.828L115.738,41.683L116.369,41.394L117,41.177L117.631,40.888L118.261,40.563L118.892,40.491L119.523,40.202L120.154,39.985L120.784,39.877L121.415,39.588L122.046,39.444L122.677,39.119L123.308,38.974L123.939,38.793L124.569,38.577L125.2,38.324L125.831,38.071L126.462,37.854L127.093,37.782L127.723,37.565L128.354,37.457L128.985,37.421L129.616,37.204L130.247,37.024L130.877,36.951L131.508,36.951L132.139,36.843L132.77,36.734L133.401,36.59L134.031,36.554L134.662,36.301L135.293,36.373L135.924,36.157L136.555,36.121L137.185,36.084L137.816,35.832L138.447,36.012L139.078,35.868L139.708,35.868L140.339,35.904L140.97,35.832L141.601,35.615L142.232,35.434L142.863,35.759L143.493,35.687L144.124,35.542L144.755,35.47L145.386,35.542L146.017,35.434L146.647,35.434L147.278,35.326L147.909,35.398L148.54,35.362L149.171,35.326L149.801,35.398L150.432,35.29L151.063,35.218L151.694,35.218L152.325,35.254L152.955,35.145L153.586,35.109L154.217,35.037L154.848,35.073L155.479,35.145L156.109,35.181L156.74,35.109L157.371,35.001L158.002,34.965L158.633,34.929L159.263,34.82L159.894,34.892L160.525,34.82L161.156,34.784L161.787,34.784L162.417,34.965L163.048,34.856L163.679,34.856L164.31,34.784L164.94,34.856L165.571,34.82L166.202,34.676L166.833,34.748L167.464,34.603L168.095,34.64L168.725,34.531L169.356,34.603L169.987,34.603L170.618,34.64L171.249,34.531L171.879,34.387L172.51,34.495L173.141,34.531L173.772,34.423L174.403,34.387L175.033,34.423L175.664,34.567L176.295,34.423L176.926,34.531L177.557,34.278L178.187,34.459L178.818,34.278L179.449,34.206L180.08,34.242L180.711,34.35L181.341,34.314L181.972,34.314L182.603,34.242L183.234,34.278L183.865,34.242L184.495,34.35L185.126,34.35L185.757,34.17L186.388,34.242L187.018,34.17L187.649,34.242L188.28,34.242L189.542,34.17L190.173,34.17L190.804,34.134L191.434,34.134L192.065,34.098L192.696,33.989L193.327,34.026L193.958,34.026L194.588,33.953L195.219,34.134L195.85,34.062L196.481,34.17L197.112,34.134L197.742,34.17L198.373,34.062L199.004,33.953L199.635,33.953L200.266,33.845L200.896,33.989L201.527,33.845L202.158,33.881L202.789,33.917L203.42,33.989L204.05,33.953L204.681,33.845L205.312,33.917L205.943,34.026L206.574,33.773L207.204,33.809L207.835,33.845L208.466,33.917L209.097,33.773L209.728,33.773L210.358,33.809L210.989,33.7L211.62,33.7L212.25,33.773L212.881,33.773L213.512,33.7L214.143,33.773L214.774,33.664L215.405,33.664L216.036,33.737L216.666,33.7L217.297,33.773L217.928,33.628L218.559,33.664L219.19,33.773L220.451,33.628L221.082,33.664L221.713,33.737L222.344,33.7L222.974,33.411L223.605,33.628L224.236,33.556L224.867,33.556L225.498,33.52L226.128,33.448L226.759,33.52L227.39,33.52L228.021,33.411L228.652,33.592L229.282,33.52L229.913,33.52L230.544,33.411L231.175,33.52L231.806,33.52L233.067,33.375L233.698,33.484L234.329,33.303L234.96,33.375L236.221,33.375L236.852,33.448L237.483,33.231L238.113,33.375L238.744,33.267L239.375,33.267L240.006,33.195L240.637,33.267L241.268,33.303L241.898,33.195L242.529,33.267L243.16,33.231L243.791,33.303L244.422,33.267L245.052,33.231L245.683,33.195L246.945,33.195L247.576,33.303L248.206,33.195L248.837,33.231L249.468,33.231L250.098,33.158L250.73,33.086L251.36,33.158L251.99,33.195L253.253,33.195L253.883,33.231L254.515,33.195L255.145,33.014L255.775,32.978L256.408,33.086L257.038,33.195L257.668,33.086L258.3,33.086L258.93,32.978L259.56,32.978L260.193,33.195L260.823,33.05L261.452,33.014L262.085,32.942L262.715,32.906L263.345,32.978L263.978,33.086L264.608,33.014L265.238,33.014L265.868,33.05L266.5,32.942L267.13,32.942L267.76,32.87L268.393,32.906L269.023,32.978L269.652,33.014L270.285,32.942L270.915,32.942L271.545,33.014L272.178,33.05L273.438,32.761L274.07,32.978L274.7,32.978L275.33,32.87L275.963,32.906L276.592,32.87L277.223,32.906L277.855,32.942L278.485,32.797L279.115,32.906L279.748,32.761L280.378,32.725L281.008,32.834L281.638,32.87L282.27,32.797L282.9,32.725L283.53,32.689L284.163,32.761L284.793,32.834L285.423,32.761L286.055,32.906L286.685,32.942L287.315,32.797L287.948,32.834L288.578,32.761L289.208,32.834L289.84,32.725L290.47,32.653L291.1,32.761L291.733,32.653L292.363,32.689L292.993,32.797L293.625,32.725L294.255,32.689L295.518,32.689L296.148,32.653L296.777,32.653L297.408,32.617L298.04,32.653L298.67,32.545L299.3,32.725L299.933,32.581L300.563,32.545L301.193,32.545L301.825,32.581L302.455,32.472L303.085,32.508L303.717,32.653L305.61,32.653L306.24,32.617L306.87,32.617L307.503,32.689L308.133,32.653L308.763,32.581L309.395,32.689L310.025,32.545L310.655,32.581L311.288,32.436L311.918,32.581L312.548,32.581L313.178,32.617L313.81,32.545L314.44,32.581L315.07,32.617L315.703,32.545L316.333,32.761L316.962,32.653L317.595,32.689L318.225,32.797L318.855,32.617L319.488,32.508L320.118,32.508L320.748,32.653L321.38,32.653L322.01,32.581L322.64,32.761L323.273,32.545L323.902,32.653L325.165,32.653L325.795,32.761L326.425,32.617L327.058,32.508L327.688,32.508L328.318,32.545L329.58,32.545L330.21,32.472L330.84,32.581L331.473,32.581L332.103,32.436L332.733,32.545L333.365,32.364L333.995,32.436L334.625,32.364L335.258,32.472L335.888,32.436L336.518,32.581L337.15,32.436L337.78,32.436L338.41,32.508L339.043,32.472L339.673,32.472L340.303,32.508L340.935,32.472L341.565,32.545L342.195,32.508L342.828,32.4L344.087,32.4L344.72,32.472L345.35,32.508L346.61,32.364L347.243,32.328L347.873,32.436L348.503,32.4L349.135,32.436L349.765,32.581L350.395,32.4L351.027,32.364L351.658,32.4L352.288,32.4L352.92,32.364L353.55,32.292L354.18,32.4L354.813,32.292L355.443,32.219L356.073,32.364L356.705,32.508L357.335,32.364L357.965,32.364L358.598,32.255L359.228,32.292L359.858,32.364L360.49,32.4L361.12,32.364L361.75,32.292L362.38,32.292L363.013,32.364L363.643,32.255L364.905,32.255L365.535,32.292L366.165,32.292L366.798,32.147L367.428,32.292L368.058,32.147L368.69,32.111L369.32,32.183L369.95,32.292L370.583,32.255L371.212,32.219L371.842,32.255L372.475,32.219L373.105,32.183L373.735,32.183L374.368,32.328L374.998,32.255L375.628,32.292L376.26,32.183L376.89,32.183L377.52,32.147L378.15,32.147L378.783,32.183L379.413,32.183L380.043,32.111L380.675,32.219L381.305,32.147L381.935,32.111L382.568,32.147L383.198,32.075L383.828,32.147L384.46,32.111L385.09,32.183L385.72,32.111L386.353,32.039L386.983,32.002L387.613,32.002L388.245,31.967L388.875,32.075L389.505,32.075L390.138,32.147L390.768,32.147L391.398,32.111L392.03,32.039L392.66,32.111L393.29,32.002L393.92,31.93L394.553,32.147L395.183,32.039L395.813,32.002L396.445,32.002L397.075,31.894L397.705,32.039L398.337,32.111L398.967,32.075L399.598,31.93L401.49,31.93L402.123,32.039L402.753,32.002L403.383,32.002L404.015,31.967L404.645,31.93L406.538,31.93L407.168,32.002L407.8,31.967L408.43,31.93L409.06,31.822L409.693,31.822L410.323,31.93L410.953,32.002L411.583,31.93L412.215,31.93L412.845,31.894L413.475,32.002L414.108,31.967L414.738,31.894L415.368,31.93L416,31.894L416.63,31.967L417.26,31.967L417.893,31.822L418.522,31.858L419.152,31.967L419.785,31.894L420.415,31.786L421.045,31.677L421.678,31.858L422.308,31.786L422.938,31.858L423.57,31.894L424.2,31.822L424.83,31.93L425.462,31.822L426.092,32.039L426.723,31.822L427.353,31.93L427.985,31.894L428.615,31.786L429.245,31.858L429.878,31.858L430.508,32.002L431.138,31.822L431.77,31.822L432.4,32.039L433.03,31.858L433.663,31.858L434.293,31.75L434.923,31.822L435.555,31.822L436.185,31.894L436.815,31.822L437.448,31.858L438.078,31.822L438.708,31.967L439.34,31.822L439.97,31.786L440.6,31.75L441.233,31.822L441.863,31.894L442.493,31.822L443.123,31.786L443.755,31.93L444.385,31.894L445.015,31.858L446.277,31.858L446.908,31.822L447.54,31.714L448.17,31.714L448.8,31.677L449.433,31.786L450.063,31.75L450.693,31.786L451.325,31.858L451.955,31.786L452.585,31.894L453.217,31.894L453.848,31.822L454.478,31.714L455.11,31.642L455.74,31.786L456.37,31.858L457.003,31.822L457.633,31.894L458.263,31.93L458.893,31.858L459.525,31.786L460.155,31.93L460.785,31.822L461.418,31.894L462.048,31.93L462.678,31.822L463.31,31.894L463.94,31.714L464.57,31.714L465.203,31.677L465.833,31.822L466.462,31.786L467.095,31.858L468.355,31.714L468.988,31.822L469.618,31.75L470.248,31.714L470.88,31.75L471.51,31.786L472.772,31.786L473.402,31.894L474.033,31.822L474.665,31.786L475.925,31.93L476.555,31.786L477.188,31.858L477.818,31.677L478.448,31.822L479.08,31.894L479.71,31.894L480.34,31.822L480.973,31.75L481.603,31.677L482.233,31.894L482.865,31.786L483.495,31.894L484.125,31.786L484.758,31.858L485.388,31.822L486.018,31.786L486.65,31.605L487.28,31.642L487.91,31.822L488.543,31.75L489.173,31.714L489.803,31.75L490.435,31.714L491.065,31.75L491.695,31.75L492.325,31.858L492.958,31.858L493.587,31.642L494.217,31.677L494.85,31.786L495.48,31.93L496.11,31.822L496.743,31.858L497.373,31.75L499.265,31.75L499.895,31.786L500.527,31.822L501.158,31.894L501.788,31.858L502.42,31.894L503.05,31.786L503.68,31.894L504.313,31.786L504.943,31.822L505.573,31.786L506.205,31.786L506.835,31.677L507.465,31.677L508.095,31.75L508.728,31.822L509.358,31.714L509.988,31.822L510.62,31.75L511.25,31.75L511.88,31.714L512.513,31.822L513.143,31.75L513.773,31.822L514.405,31.75L515.035,31.894L515.665,31.822L516.298,31.677L516.928,31.786L517.558,31.786L518.19,31.75L518.82,31.75L519.45,31.822L520.083,31.786L520.712,31.642L521.342,31.714L521.975,31.75L522.605,31.75L523.235,31.822L523.865,31.714L524.497,31.858L525.128,31.75L525.758,31.75L526.39,31.569L527.02,31.822L527.65,31.75L528.283,31.858L528.913,31.786L529.543,31.642L530.175,31.677L530.805,31.93L531.435,31.858L532.068,31.75L532.698,31.786L533.328,31.605L533.96,31.714L534.59,31.786L535.22,31.822L535.853,31.822L536.483,31.75L537.113,31.786L537.745,31.677L538.375,31.714L539.005,31.605L539.635,31.786L540.268,31.786L540.898,31.75L541.528,31.714L542.16,31.858L542.79,31.714L543.42,31.714L544.053,31.786L544.683,31.858L545.313,31.822L546.575,31.822L547.205,31.714L547.838,31.786L548.468,31.714L549.098,31.75L549.73,31.605L550.36,31.75L550.99,31.75L551.622,31.605L552.253,31.714L552.883,31.75L553.515,31.786L554.145,31.605L554.775,31.786L555.408,31.822L556.038,31.75L556.668,31.714L558.56,31.714L559.19,31.786L559.823,31.75L560.453,31.75L561.083,31.642L561.715,31.714L562.345,31.677L562.975,31.677L563.608,31.786L564.238,31.714L565.5,31.714L566.13,31.93L566.76,31.822L567.393,31.786L568.023,31.642L568.653,31.677L569.285,31.714L570.545,31.858L571.178,31.714L571.808,31.642L572.438,31.822L573.068,31.75" style="fill:none;fill-rule:nonzero;stroke:rgb(65,0,235);stroke-width:1.5px;"/>
    <path d="M69.059,309.99L69.69,309.808L70.321,309.953L70.951,309.88L71.582,309.918L72.213,309.953L72.844,309.918L74.105,309.918L74.736,309.953L75.367,309.918L75.998,309.88L76.629,309.953L77.259,309.953L77.89,309.88L78.521,310.025L79.152,310.025L80.413,309.88L81.044,309.88L81.675,309.918L82.306,309.88L82.937,309.918L83.567,310.025L84.198,309.808L84.829,309.953L86.091,309.953L86.721,309.88L87.352,309.918L87.983,309.88L88.614,309.918L89.245,309.953L89.875,309.88L90.506,309.88L91.137,309.845L91.768,309.88L92.399,309.88L93.029,309.918L93.66,309.918L94.291,309.953L94.922,309.845L95.553,309.918L96.183,309.918L96.814,309.953L97.445,309.953L98.076,309.99L98.707,309.738L99.337,309.88L99.968,309.918L100.599,153.044L101.23,108.073L101.861,94.636L102.491,87.087L103.122,81.922L103.753,78.238L104.384,75.456L105.015,73.036L105.645,70.941L106.276,69.388L106.907,67.979L107.538,66.534L108.168,65.342L108.799,64.222L109.43,63.392L110.061,62.597L110.692,61.839L111.323,61.116L111.953,60.466L112.584,59.96L113.215,59.419L113.846,58.804L114.477,58.154L115.107,57.793L115.738,57.287L116.369,56.709L117,56.42L117.631,56.204L118.261,55.806L118.892,55.445L119.523,55.228L120.154,54.687L120.784,54.398L121.415,54.109L122.046,53.783L122.677,53.567L123.308,53.242L123.939,52.989L124.569,52.736L125.2,52.375L125.831,52.375L126.462,52.194L127.093,51.941L127.723,51.725L128.354,51.58L128.985,51.364L129.616,50.966L130.247,51.075L130.877,50.93L131.508,50.75L132.139,50.497L132.77,50.208L133.401,49.991L134.031,49.883L134.662,49.81L135.293,49.666L135.924,49.558L136.555,49.413L137.185,49.449L137.816,49.196L138.447,49.052L139.078,48.799L139.708,48.654L140.97,48.438L141.601,48.474L142.232,48.438L142.863,48.257L143.493,48.004L144.124,47.896L144.755,47.932L145.386,47.788L146.017,47.679L146.647,47.607L147.278,47.499L147.909,47.463L148.54,47.21L149.171,47.029L149.801,47.137L150.432,47.101L151.063,47.029L151.694,46.848L152.325,46.885L152.955,46.812L153.586,46.74L154.217,46.487L154.848,46.343L155.479,46.415L156.109,46.126L156.74,45.837L157.371,46.234L158.002,46.018L158.633,45.909L159.263,45.801L159.894,45.765L160.525,45.837L161.156,45.512L161.787,45.44L162.417,45.331L163.048,45.44L163.679,45.404L164.31,45.259L164.94,45.151L165.571,45.079L166.202,45.006L166.833,44.97L167.464,44.898L168.095,44.934L168.725,44.717L169.356,44.753L169.987,44.609L170.618,44.573L171.249,44.501L171.879,44.464L172.51,44.284L173.141,44.175L174.403,44.175L175.033,44.139L175.664,44.212L176.295,44.103L176.926,44.031L177.557,43.923L178.818,43.923L179.449,43.995L180.08,43.887L180.711,43.959L181.341,43.67L181.972,43.634L182.603,43.706L183.234,43.561L183.865,43.525L185.126,43.525L185.757,43.417L186.388,43.381L187.018,43.453L187.649,43.272L188.28,43.128L188.911,42.984L189.542,42.984L190.173,43.056L190.804,42.984L191.434,42.803L192.065,42.839L192.696,42.803L193.327,42.839L193.958,42.839L194.588,42.875L196.481,42.658L197.112,42.731L197.742,42.622L198.373,42.586L199.004,42.514L199.635,42.333L200.266,42.369L200.896,42.442L201.527,42.261L202.158,42.261L202.789,42.297L203.42,42.261L204.05,42.044L204.681,42.153L205.312,42.153L205.943,42.225L206.574,42.117L207.204,42.044L207.835,42.008L209.097,41.792L209.728,41.755L210.358,41.683L210.989,41.755L211.62,41.792L212.25,41.864L212.881,41.719L213.512,41.755L214.143,41.611L214.774,41.503L215.405,41.539L216.036,41.611L216.666,41.539L217.297,41.575L217.928,41.25L218.559,41.43L219.19,41.43L219.82,41.177L220.451,41.177L221.082,41.214L221.713,41.25L222.344,41.214L222.974,40.997L223.605,40.997L224.236,41.033L224.867,41.069L225.498,40.961L226.128,40.997L226.759,40.816L227.39,40.744L228.021,40.672L228.652,40.816L229.282,40.852L229.913,40.708L230.544,40.744L231.175,40.708L231.806,40.744L232.436,40.672L233.698,40.672L234.329,40.708L235.59,40.563L236.221,40.563L236.852,40.527L237.483,40.274L238.113,40.491L238.744,40.419L239.375,40.274L240.006,40.166L240.637,40.202L241.268,40.274L241.898,40.238L242.529,40.058L243.16,39.913L243.791,39.877L244.422,40.022L245.052,39.913L245.683,39.985L246.314,39.913L246.945,39.913L247.576,39.877L248.206,39.66L248.837,39.733L249.468,39.624L250.098,39.624L250.73,39.769L251.36,39.552L251.99,39.624L252.623,39.66L253.253,39.516L253.883,39.588L254.515,39.371L255.145,39.408L255.775,39.371L256.408,39.444L257.038,39.371L257.668,39.227L258.3,39.191L258.93,39.191L259.56,39.119L260.193,39.191L260.823,39.371L261.452,38.974L262.085,39.227L262.715,38.938L263.345,39.046L263.978,39.01L264.608,38.974L265.238,38.866L265.868,38.938L266.5,38.83L267.13,38.902L267.76,39.01L268.393,38.902L269.023,38.866L269.652,38.793L270.285,38.757L270.915,38.902L271.545,38.793L272.178,38.721L272.808,38.577L273.438,38.432L274.07,38.541L274.7,38.432L275.33,38.541L275.963,38.613L277.223,38.613L277.855,38.468L278.485,38.541L279.115,38.505L279.748,38.505L280.378,38.468L281.008,38.505L281.638,38.432L282.27,38.324L282.9,38.216L283.53,38.324L284.163,38.288L284.793,38.432L285.423,38.288L286.055,38.179L286.685,38.432L287.315,38.324L287.948,38.107L288.578,38.324L289.208,38.324L289.84,38.36L290.47,38.179L291.1,38.071L291.733,38.143L292.363,37.927L292.993,38.035L294.255,38.035L294.885,37.963L295.518,37.927L296.148,37.818L296.777,37.927L297.408,37.854L298.04,37.963L298.67,37.854L299.3,37.818L299.933,37.854L301.193,37.999L301.825,37.999L302.455,37.782L303.085,37.746L303.717,37.565L304.348,37.493L304.978,37.457L305.61,37.565L306.24,37.529L307.503,37.529L308.763,37.457L309.395,37.529L310.025,37.457L310.655,37.349L311.288,37.529L311.918,37.349L312.548,37.313L313.178,37.349L313.81,37.313L314.44,37.385L315.07,37.313L315.703,37.276L316.333,37.349L316.962,37.132L317.595,37.096L318.225,37.24L318.855,37.276L319.488,37.24L320.118,36.951L320.748,36.987L321.38,37.096L322.01,37.204L322.64,37.132L323.273,36.951L323.902,37.024L324.533,36.951L325.165,37.096L325.795,36.915L326.425,36.807L327.058,36.807L327.688,36.843L328.318,36.879L328.95,36.879L329.58,36.843L330.21,36.807L330.84,36.951L331.473,36.662L332.103,36.807L332.733,36.771L333.365,36.698L333.995,36.698L334.625,36.843L335.258,36.59L336.518,36.734L337.15,36.518L337.78,36.59L338.41,36.409L339.043,36.481L339.673,36.626L340.935,36.626L341.565,36.518L342.195,36.626L342.828,36.626L343.458,36.373L344.087,36.446L344.72,36.662L345.35,36.409L345.98,36.301L346.61,36.373L347.243,36.193L347.873,36.301L348.503,36.337L349.135,36.446L349.765,36.481L350.395,36.446L351.027,36.301L351.658,36.373L352.288,36.265L352.92,36.301L353.55,36.193L354.18,36.121L354.813,36.157L356.073,36.012L356.705,35.94L357.335,35.976L357.965,36.048L358.598,35.904L359.228,35.868L359.858,36.121L360.49,36.048L361.12,35.976L361.75,35.94L362.38,35.868L363.013,35.94L363.643,35.795L364.273,35.795L364.905,35.94L365.535,35.904L366.165,36.084L366.798,35.868L367.428,35.832L368.058,35.832L368.69,35.94L369.32,35.759L369.95,35.759L370.583,35.795L371.212,35.832L371.842,35.687L372.475,35.651L373.105,35.579L373.735,35.542L374.368,35.651L374.998,35.542L375.628,35.506L376.26,35.542L376.89,35.687L377.52,35.542L378.15,35.47L378.783,35.687L379.413,35.579L380.043,35.615L380.675,35.542L381.305,35.542L381.935,35.506L382.568,35.398L383.198,35.326L383.828,35.506L384.46,35.506L385.09,35.651L385.72,35.542L386.353,35.47L386.983,35.506L387.613,35.687L388.245,35.579L388.875,35.506L389.505,35.47L390.138,35.579L390.768,35.579L391.398,35.542L392.03,35.542L393.29,35.398L393.92,35.362L394.553,35.398L395.183,35.506L395.813,35.47L396.445,35.326L397.075,35.254L397.705,35.109L398.337,35.037L399.598,35.326L400.23,35.218L400.86,35.181L401.49,35.145L402.123,35.109L402.753,35.254L403.383,35.145L404.015,35.29L404.645,35.181L405.275,35.145L405.908,35.001L406.538,35.109L407.168,35.181L407.8,35.145L408.43,35.037L409.06,35.145L409.693,34.965L410.323,35.073L410.953,35.037L411.583,35.181L412.215,35.181L412.845,35.073L413.475,35.001L414.108,35.181L414.738,35.073L415.368,35.109L416,35.037L416.63,35.001L417.26,34.965L417.893,34.892L418.522,34.82L419.785,34.82L420.415,34.892L421.045,34.892L421.678,34.965L422.308,34.856L422.938,35.037L423.57,35.001L424.2,34.929L424.83,34.892L425.462,34.892L426.092,35.073L426.723,34.965L427.353,34.82L427.985,34.748L428.615,34.676L429.245,34.784L429.878,34.712L430.508,34.929L431.138,34.892L431.77,34.856L432.4,34.784L433.03,34.892L433.663,34.892L434.293,34.82L434.923,34.856L435.555,34.712L436.185,34.82L436.815,34.892L437.448,34.892L438.078,34.856L438.708,34.712L439.34,34.784L439.97,34.929L440.6,34.82L441.233,34.856L441.863,34.748L442.493,34.82L443.123,34.676L443.755,34.748L444.385,34.892L445.015,34.82L445.647,34.64L446.277,34.603L446.908,34.64L447.54,34.64L448.17,34.748L448.8,34.603L449.433,34.784L450.063,34.64L451.325,34.64L451.955,34.748L452.585,34.748L453.217,34.567L453.848,34.676L454.478,34.567L455.11,34.676L455.74,34.64L456.37,34.712L457.003,34.712L457.633,34.495L458.263,34.495L458.893,34.531L459.525,34.531L460.155,34.567L460.785,34.748L461.418,34.748L462.048,34.64L462.678,34.676L463.31,34.567L463.94,34.531L464.57,34.712L465.203,34.712L465.833,34.603L466.462,34.459L467.095,34.423L467.725,34.459L468.355,34.459L468.988,34.423L469.618,34.423L470.248,34.567L470.88,34.423L471.51,34.459L472.14,34.423L472.772,34.387L473.402,34.459L474.033,34.314L474.665,34.459L475.295,34.531L475.925,34.676L476.555,34.314L477.188,34.35L477.818,34.387L478.448,34.35L479.08,34.603L479.71,34.603L480.34,34.531L480.973,34.459L481.603,34.531L482.233,34.35L482.865,34.35L483.495,34.387L484.125,34.35L484.758,34.387L485.388,34.423L486.018,34.423L486.65,34.459L487.28,34.35L487.91,34.35L488.543,34.459L489.173,34.423L489.803,34.423L490.435,34.603L491.065,34.35L491.695,34.35L492.325,34.17L492.958,34.423L493.587,34.423L494.217,34.35L494.85,34.35L495.48,34.459L496.11,34.35L496.743,34.64L497.373,34.676L498.003,34.495L498.635,34.314L499.265,34.459L499.895,34.531L500.527,34.495L501.158,34.423L501.788,34.423L502.42,34.459L503.05,34.567L503.68,34.495L504.313,34.35L504.943,34.242L505.573,34.278L506.205,34.35L506.835,34.423L507.465,34.531L508.095,34.423L508.728,34.423L509.358,34.35L509.988,34.423L510.62,34.531L511.25,34.495L511.88,34.278L512.513,34.387L513.143,34.531L513.773,34.35L514.405,34.387L515.035,34.423L515.665,34.423L516.298,34.531L516.928,34.423L517.558,34.603L518.19,34.459L519.45,34.459L520.083,34.35L520.712,34.17L521.342,34.35L521.975,34.423L522.605,34.387L523.235,34.35L523.865,34.314L524.497,34.314L525.128,34.17L525.758,34.206L526.39,34.387L527.65,34.387L528.283,34.35L528.913,34.35L529.543,34.278L530.175,34.242L530.805,34.098L531.435,34.242L532.068,34.242L532.698,34.134L533.328,34.206L533.96,34.206L534.59,34.387L535.22,34.314L535.853,34.459L536.483,34.242L537.113,34.278L537.745,34.35L538.375,34.242L539.005,34.387L539.635,34.314L540.268,34.278L541.528,34.278L542.16,34.17L543.42,34.387L544.053,34.459L544.683,34.35L545.313,34.278L545.945,34.423L546.575,34.278L547.205,34.387L547.838,34.242L548.468,34.35L549.098,34.387L549.73,34.35L550.36,34.242L550.99,34.278L551.622,34.35L552.253,34.242L552.883,34.242L553.515,34.206L554.145,34.17L554.775,34.314L555.408,34.278L556.038,34.387L556.668,34.423L557.298,34.062L557.93,34.206L558.56,34.17L559.19,34.278L559.823,34.314L560.453,34.314L561.083,34.278L561.715,34.206L562.345,34.062L562.975,34.17L563.608,34.206L564.238,34.206L564.867,34.17L565.5,34.387L566.13,34.314L566.76,34.134L567.393,34.206L568.023,34.387L568.653,34.17L569.285,34.17L569.915,34.242L570.545,34.314L571.178,34.206L571.808,34.134L572.438,34.098L573.068,34.17" style="fill:none;fill-rule:nonzero;stroke:rgb(235,0,65);stroke-width:1.5px;"/>
    <rect x="406.628" y="203.447" width="115.498" height="45.36" style="fill:white;"/>
    <path d="M406.628,248.807L522.125,248.807L522.125,203.447L406.628,203.447L406.628,248.807" style="fill:none;fill-rule:nonzero;stroke:black;stroke-width:1px;"/>
    <path d="M412.628,218.567L448.628,218.567" style="fill:none;fill-rule:nonzero;stroke:rgb(65,0,235);stroke-width:1.5px;"/>
    <g transform="matrix(1,0,0,1,454.627,222.942)">
        <text x="0px" y="0px" style="font-family:'ArialMT', 'Arial', sans-serif;font-size:12px;">Metropolis</text>
    </g>
    <path d="M412.628,233.687L448.628,233.687" style="fill:none;fill-rule:nonzero;stroke:rgb(235,0,65);stroke-width:1.5px;"/>
    <g transform="matrix(1,0,0,1,454.627,238.062)">
        <text x="0px" y="0px" style="font-family:'ArialMT', 'Arial', sans-serif;font-size:12px;">Glauber</text>
    </g>
    <g transform="matrix(1,0,0,1,68.428,332.967)">
        <text x="0px" y="0px" style="font-family:'ArialMT', 'Arial', sans-serif;font-size:12px;">T=10</text>
    </g>
    <g transform="matrix(1,0,0,1,106.276,332.967)">
        <text x="0px" y="0px" style="font-family:'ArialMT', 'Arial', sans-serif;font-size:12px;">T=2</text>
    </g>
</svg>
